<?xml version="1.0" encoding="UTF-8"?>
<svg version="1.1" xmlns="http://www.w3.org/2000/svg" width="3880" height="3904">
<path d="M0 0 C2.52304603 -0.00323188 5.04609189 -0.0065972 7.56913757 -0.01008606 C12.82726473 -0.01601886 18.0853756 -0.01793232 23.34350586 -0.01733398 C28.62999936 -0.01725321 33.91640531 -0.02412882 39.20288086 -0.0378418 C71.86285761 -0.12116265 104.40338327 0.25383464 137.01171875 2.16796875 C137.70455082 2.20797375 138.39738289 2.24797874 139.11120987 2.28919601 C147.50095817 2.77475673 155.88205483 3.34555364 164.26171875 3.98046875 C165.3905246 4.06444916 166.51933044 4.14842957 167.68234253 4.23495483 C275.40349862 12.28956094 382.08507546 30.10950135 599.01171875 90.16796875 C599.99118469 90.49194641 600.97065063 90.81592407 601.97979736 91.14971924 C690.33196993 120.41188385 775.54574117 156.89179595 893.30664062 216.67871094 C897.36981337 218.91565622 901.46699836 221.08784517 905.56054688 223.26855469 C918.23187729 230.02833371 930.67631074 237.11213985 943.03955078 244.41796875 C946.03244934 246.18017484 949.0339828 247.92662588 952.0390625 249.66796875 C1006.51372465 281.2393124 1059.1447868 316.0731572 1110.01171875 353.16796875 C1110.78370605 353.72983887 1111.55569336 354.29170898 1112.35107422 354.87060547 C1123.39131309 362.91534273 1134.24582489 371.16791893 1144.99707031 379.59423828 C1147.905037 381.86577891 1150.8324218 384.11155073 1153.76171875 386.35546875 C1165.38834382 395.29007174 1176.84755113 404.41502196 1188.203125 413.69140625 C1189.80407355 414.99844416 1191.40769851 416.30220231 1193.01171875 417.60546875 C1199.53034657 422.91132861 1205.95422208 428.32295764 1212.35888672 433.76513672 C1214.51619887 435.59614346 1216.67842664 437.4212927 1218.84057617 439.24658203 C1221.56740169 441.55004399 1224.28965118 443.85888814 1227.01171875 446.16796875 C1227.87265137 446.89717529 1227.87265137 446.89717529 1228.75097656 447.64111328 C1236.08591199 453.86021507 1243.28775704 460.18914401 1250.34765625 466.71875 C1252.54262652 468.73670654 1254.75838085 470.7160032 1257.01171875 472.66796875 C1261.9202399 476.92742925 1266.68443567 481.34433186 1271.46484375 485.74609375 C1272.93586985 487.09824905 1274.4111808 488.44573844 1275.88671875 489.79296875 C1287.52169027 500.41620362 1299.12568106 511.06995205 1310.14404297 522.3371582 C1312.92122226 525.15921343 1315.75280264 527.84252112 1318.7578125 530.421875 C1323.94063622 534.90274174 1328.74217131 539.75272732 1333.57421875 544.60546875 C1334.93450195 545.95995117 1334.93450195 545.95995117 1336.32226562 547.34179688 C1340.80593415 551.83196818 1345.12630714 556.3809289 1349.25756836 561.19555664 C1352.66369917 565.0254983 1356.35839983 568.57594713 1360.01171875 572.16796875 C1365.02075204 577.09295785 1369.90205222 582.03902019 1374.45507812 587.39257812 C1376.06936349 589.23371414 1377.76342173 590.95430925 1379.51171875 592.66796875 C1382.45712605 595.56796228 1385.16635584 598.60423306 1387.86328125 601.734375 C1390.68792534 604.9339264 1393.59938241 608.04834283 1396.51171875 611.16796875 C1401.56163413 616.58664638 1406.50767176 622.06573369 1411.31884766 627.69824219 C1412.84105942 629.48017021 1414.36378849 631.26165476 1415.88671875 633.04296875 C1416.40669434 633.65180908 1416.92666992 634.26064941 1417.46240234 634.88793945 C1420.49116651 638.42497136 1423.56351338 641.9122336 1426.69921875 645.35546875 C1430.49679124 649.54166176 1434.08237819 653.86815889 1437.63671875 658.26171875 C1440.17836747 661.37189416 1442.77761792 664.42702123 1445.38671875 667.48046875 C1449.69061313 672.52923902 1453.81454277 677.69585251 1457.8840332 682.93457031 C1461.01895837 686.95253376 1464.25752119 690.86166915 1467.57421875 694.73046875 C1471.98801927 699.89037296 1476.18081886 705.19042967 1480.2890625 710.59765625 C1482.85969819 713.98103119 1485.47231351 717.3305894 1488.08862305 720.67871094 C1495.17999445 729.75643661 1502.14706739 738.91785105 1509.01171875 748.16796875 C1509.56859375 748.91691406 1510.12546875 749.66585937 1510.69921875 750.4375 C1517.89777318 760.12662572 1524.99286058 769.87869394 1531.91943359 779.76416016 C1533.83927796 782.50229916 1535.76634261 785.23492366 1537.70507812 787.9597168 C1545.7730401 799.30833087 1553.60917758 810.80637709 1561.38671875 822.35546875 C1562.34433105 823.77620697 1562.34433105 823.77620697 1563.32128906 825.22564697 C1572.42886065 838.74519786 1581.42863231 852.30765918 1590.01171875 866.16796875 C1591.0491181 867.82965256 1592.08688705 869.49110567 1593.125 871.15234375 C1596.44404124 876.47654369 1599.73075268 881.82024533 1603.01171875 887.16796875 C1603.98431641 888.74940674 1603.98431641 888.74940674 1604.9765625 890.36279297 C1615.67111474 907.77176518 1625.99964716 925.35781575 1636.01171875 943.16796875 C1636.64319824 944.29058105 1637.27467773 945.41319336 1637.92529297 946.56982422 C1665.11938031 995.00907333 1690.32873823 1044.37802943 1713.06640625 1095.06311035 C1713.99642905 1097.1339243 1714.92944817 1099.20336283 1715.86328125 1101.27246094 C1726.2198799 1124.24036889 1735.7873985 1147.49820744 1745.10894775 1170.90356445 C1745.94832047 1173.00894798 1746.79055378 1175.11315383 1747.63427734 1177.21679688 C1748.95398847 1180.51052595 1750.26649457 1183.80696561 1751.57421875 1187.10546875 C1751.93821777 1188.01578857 1752.3022168 1188.9261084 1752.67724609 1189.86401367 C1753.15411865 1191.07988159 1753.15411865 1191.07988159 1753.640625 1192.3203125 C1753.9094751 1193.00085693 1754.1783252 1193.68140137 1754.45532227 1194.38256836 C1755.01171875 1196.16796875 1755.01171875 1196.16796875 1755.01171875 1199.16796875 C1694.55751982 1199.32218202 1634.10329858 1199.46528312 1573.6489563 1199.54905701 C1572.7546013 1199.55029952 1571.8602463 1199.55154203 1570.93878964 1199.5528222 C1551.50331855 1199.57975666 1532.06784538 1199.60468854 1512.63236909 1199.62755672 C1503.10159195 1199.63878301 1493.57081538 1199.65045196 1484.04003906 1199.66235352 C1482.61737823 1199.66411876 1482.61737823 1199.66411876 1481.16597677 1199.66591967 C1450.40918693 1199.70429047 1419.65254564 1199.77190604 1388.89584584 1199.85464374 C1357.29650212 1199.93949406 1325.69724066 1199.99492771 1294.09778494 1200.01320366 C1289.63737527 1200.01579716 1285.17696587 1200.01872789 1280.71655655 1200.02186394 C1279.39971252 1200.02277415 1279.39971252 1200.02277415 1278.05626559 1200.02370275 C1263.90899045 1200.03434952 1249.7619692 1200.07612217 1235.61479771 1200.12945706 C1221.40144926 1200.18237999 1207.18835317 1200.20269636 1192.97490959 1200.18948115 C1184.52413863 1200.1826216 1176.07428938 1200.20100976 1167.62368439 1200.25514664 C1161.32222417 1200.29276719 1155.02165894 1200.28367817 1148.72016515 1200.2560588 C1146.16419556 1200.25223828 1143.60814956 1200.26380992 1141.05233167 1200.29191739 C1137.58901398 1200.32780547 1134.1302765 1200.30872916 1130.66703606 1200.27539921 C1129.66403878 1200.29904233 1128.66104151 1200.32268545 1127.62765038 1200.34704503 C1121.02091195 1200.20238229 1121.02091195 1200.20238229 1118.09356941 1197.20188373 C1116.55014063 1194.91531785 1115.25553471 1192.6278332 1114.01171875 1190.16796875 C1113.35461914 1189.1217334 1112.69751953 1188.07549805 1112.02050781 1186.99755859 C1111.44526367 1186.05090332 1110.87001953 1185.10424805 1110.27734375 1184.12890625 C1109.30099976 1182.52873657 1109.30099976 1182.52873657 1108.30493164 1180.89624023 C1107.29354126 1179.23637085 1107.29354126 1179.23637085 1106.26171875 1177.54296875 C1100.83894862 1168.68470089 1095.34779987 1159.89964729 1089.48339844 1151.32617188 C1087.67275725 1148.67088519 1085.87786043 1146.00516981 1084.08203125 1143.33984375 C1076.11442522 1131.53708407 1068.04421795 1119.83086227 1059.61523438 1108.35253906 C1057.93475324 1106.06311379 1056.26214389 1103.76806258 1054.58984375 1101.47265625 C1042.98781418 1085.58981091 1030.90356977 1070.11854354 1018.43554688 1054.90771484 C1017.15945571 1053.34848548 1015.88984494 1051.78395775 1014.62109375 1050.21875 C1009.55499044 1043.97723783 1004.35766216 1037.85767662 999.109375 1031.76953125 C997.08427756 1029.42013899 995.07147145 1027.06121735 993.0703125 1024.69140625 C987.18611424 1017.739226 981.12897761 1010.99419247 974.88256836 1004.36499023 C971.92417045 1001.22456253 969.00777111 998.06961317 966.19921875 994.79296875 C963.12370841 991.21391137 959.80385153 987.92153041 956.41796875 984.63671875 C954.54239408 982.71242786 952.80945747 980.77619109 951.0703125 978.734375 C946.11751401 973.02901707 940.73638616 967.74342314 935.38745117 962.41333008 C933.57810942 960.6093479 931.77417556 958.8000821 929.97070312 956.99023438 C924.65050343 951.66728707 919.33043561 946.41858212 913.59741211 941.53540039 C911.45453251 939.68747605 909.48122399 937.69807415 907.51171875 935.66796875 C904.22317347 932.34027412 900.84790251 929.21460434 897.296875 926.171875 C894.94685106 924.11108477 892.66121659 921.99307373 890.37719727 919.85986328 C884.95026183 914.79219681 879.41739217 909.96485551 873.625 905.3125 C871.01324252 903.16921919 868.50806573 900.94416545 866.01171875 898.66796875 C860.83661945 893.96333303 855.45030678 889.56278736 850.01171875 885.16796875 C848.79229358 884.16879218 847.57358298 883.1687431 846.35546875 882.16796875 C837.49202755 874.89974756 828.47912248 867.85989908 819.34228516 860.93945312 C816.8436234 859.04019797 814.35477086 857.12858317 811.8671875 855.21484375 C801.79213148 847.47524297 791.62570957 839.92790432 781.18798828 832.68505859 C778.89014144 831.08321652 776.60442466 829.46510974 774.3203125 827.84375 C761.76312645 818.95033126 748.95581464 810.48615723 736.01171875 802.16796875 C735.23602539 801.66620117 734.46033203 801.16443359 733.66113281 800.64746094 C709.73029109 785.17776751 685.00626149 770.83875721 660.01171875 757.16796875 C658.94131348 756.58128418 657.8709082 755.99459961 656.76806641 755.39013672 C627.81247062 739.56877541 598.37662049 725.0071017 568.12106323 711.8397522 C563.97586298 710.03438445 559.8476015 708.19781116 555.734375 706.3203125 C469.93453806 667.32236832 377.29111047 641.58756094 143.94921875 604.91796875 C143.04234314 604.84074585 142.13546753 604.76352295 141.20111084 604.68395996 C107.06617993 601.82059235 72.88679336 600.82442312 38.64331055 600.90722656 C33.89611177 600.91862806 29.14913728 600.91181386 24.40194607 600.90034866 C-9.27405425 600.83149588 -42.86805848 602.00461934 -76.42578125 604.91796875 C-77.87846909 605.04152237 -77.87846909 605.04152237 -79.36050415 605.16757202 C-182.88971367 614.03788754 -285.23117892 634.64277124 -389.93530273 670.46020508 C-391.94865725 671.15430839 -393.96338744 671.84426829 -395.97851562 672.53320312 C-443.60890117 688.84624468 -489.77149741 709.08762751 -534.98828125 731.16796875 C-535.87990967 731.60299713 -535.87990967 731.60299713 -536.78955078 732.04681396 C-553.2818055 740.09989363 -569.47413689 748.50134026 -585.37695312 757.67871094 C-588.70025013 759.57400934 -592.05857507 761.39969237 -595.42285156 763.22094727 C-632.42677981 783.26659267 -667.72904555 806.76134679 -701.98828125 831.16796875 C-702.75430664 831.71259766 -703.52033203 832.25722656 -704.30957031 832.81835938 C-715.3816449 840.70493215 -726.25075984 848.83222634 -736.98828125 857.16796875 C-737.59623535 857.63944336 -738.20418945 858.11091797 -738.83056641 858.59667969 C-747.71865544 865.50228622 -756.4678162 872.57506966 -765.18408203 879.69580078 C-766.77101171 880.99068386 -768.36176862 882.28087353 -769.953125 883.5703125 C-780.41322083 892.06434039 -790.61623719 900.83470782 -800.546875 909.94140625 C-802.64982958 911.85930082 -804.77497281 913.7417292 -806.92578125 915.60546875 C-811.24796594 919.36541803 -815.46513878 923.23737736 -819.67504883 927.12182617 C-821.66113544 928.95199246 -823.65587356 930.76984427 -825.66186523 932.57836914 C-835.89229371 941.86548504 -845.62708204 951.6537014 -855.38330078 961.43261719 C-857.87749879 963.93255087 -860.37621646 966.42791156 -862.87625694 968.92200089 C-864.83079134 970.87289714 -866.78290783 972.82619893 -868.73433304 974.78020477 C-870.0949337 976.1417788 -871.45751595 977.50137176 -872.82015991 978.86090088 C-877.19537173 983.25256185 -881.44079113 987.69620669 -885.46844482 992.41001892 C-888.16418272 995.52809919 -891.02831372 998.48952827 -893.86328125 1001.48046875 C-898.73308481 1006.65347074 -903.3460703 1011.93792721 -907.78125 1017.4921875 C-910.24808107 1020.4829473 -912.8482044 1023.33137251 -915.48828125 1026.16796875 C-920.57289881 1031.64073178 -925.30982123 1037.34307529 -929.98828125 1043.16796875 C-931.4243811 1044.91911793 -932.86190448 1046.66910058 -934.30078125 1048.41796875 C-935.86492122 1050.33329732 -937.42730824 1052.25005827 -938.98828125 1054.16796875 C-939.42479004 1054.70341309 -939.86129883 1055.23885742 -940.31103516 1055.79052734 C-948.54909118 1065.91737928 -956.4099863 1076.3047837 -964.20263672 1086.77685547 C-965.83123897 1088.95767724 -967.47066774 1091.12956596 -969.1171875 1093.296875 C-1001.88084072 1136.46022714 -1030.74926133 1182.80027115 -1056.98828125 1230.16796875 C-1057.50471191 1231.09641602 -1058.02114258 1232.02486328 -1058.55322266 1232.98144531 C-1076.72866404 1265.78151543 -1093.31981878 1299.50063625 -1108.05328369 1333.98156738 C-1108.99744117 1336.18938834 -1109.94635728 1338.39511777 -1110.89599609 1340.60058594 C-1120.73644791 1363.49818373 -1129.67376302 1386.67498668 -1137.98828125 1410.16796875 C-1138.29527954 1411.03440002 -1138.60227783 1411.9008313 -1138.9185791 1412.79351807 C-1148.53833562 1439.99196093 -1157.273293 1467.36900073 -1164.98828125 1495.16796875 C-1165.20808655 1495.95715698 -1165.42789185 1496.74634521 -1165.65435791 1497.55944824 C-1189.40372106 1582.96356203 -1202.97948426 1670.80374173 -1208.98828125 1759.16796875 C-1209.04993469 1760.05415894 -1209.11158813 1760.94034912 -1209.17510986 1761.85339355 C-1212.91010886 1815.88526241 -1212.75132117 1871.14418914 -1208.98828125 1925.16796875 C-1208.92276062 1926.12914612 -1208.85723999 1927.09032349 -1208.78973389 1928.08062744 C-1204.64750113 1988.62328765 -1196.87696244 2048.65100453 -1184.98828125 2108.16796875 C-1184.81703735 2109.0265448 -1184.64579346 2109.88512085 -1184.46936035 2110.76971436 C-1176.54753151 2150.33694907 -1166.83205773 2189.58698105 -1154.98828125 2228.16796875 C-1154.76912048 2228.88305603 -1154.54995972 2229.59814331 -1154.32415771 2230.3348999 C-1139.62881029 2278.21145496 -1122.87101213 2325.18677754 -1102.98828125 2371.16796875 C-1102.50327148 2372.28961426 -1102.01826172 2373.41125977 -1101.51855469 2374.56689453 C-1085.76171129 2410.82681103 -1068.81989475 2446.77778597 -1049.56884766 2481.32324219 C-1047.84617709 2484.4237299 -1046.14123546 2487.5336009 -1044.4375 2490.64453125 C-1035.97966219 2506.04417934 -1027.15840666 2521.18246163 -1017.98828125 2536.16796875 C-1017.43865723 2537.07353516 -1016.8890332 2537.97910156 -1016.32275391 2538.91210938 C-1007.52331649 2553.39039165 -998.19087585 2567.50638353 -988.80078125 2581.60546875 C-987.91092026 2582.94301712 -987.91092026 2582.94301712 -987.00308228 2584.30758667 C-977.00457681 2599.32150411 -966.78794021 2614.17037645 -956.05078125 2628.66796875 C-955.47287842 2629.45002686 -954.89497559 2630.23208496 -954.29956055 2631.0378418 C-941.12011149 2648.82248243 -927.46386218 2666.22262661 -913.46044922 2683.36376953 C-912.16556614 2684.95069921 -910.87537647 2686.54145612 -909.5859375 2688.1328125 C-904.52258384 2694.36815398 -899.32997561 2700.48318989 -894.0859375 2706.56640625 C-892.06084006 2708.91579851 -890.04803395 2711.27472015 -888.046875 2713.64453125 C-882.16334313 2720.59592416 -876.10679462 2727.34008481 -869.86132812 2733.96875 C-866.88233988 2737.13121457 -863.94516084 2740.30913511 -861.11328125 2743.60546875 C-858.29510182 2746.88390361 -855.28528055 2749.91569357 -852.17578125 2752.91796875 C-850.3228326 2754.82385879 -848.5985706 2756.76725343 -846.86889648 2758.78295898 C-842.98921275 2763.22822209 -838.88756465 2767.41313941 -834.7109375 2771.578125 C-833.9407579 2772.34926132 -833.17057831 2773.12039764 -832.37705994 2773.91490173 C-830.75886752 2775.53377028 -829.13942913 2777.15139426 -827.51879883 2778.76782227 C-825.05760893 2781.22365593 -822.60180316 2783.6847824 -820.14648438 2786.14648438 C-818.56412258 2787.72818528 -816.98145058 2789.30957592 -815.3984375 2790.890625 C-814.67423111 2791.61685562 -813.95002472 2792.34308624 -813.20387268 2793.09132385 C-809.15048452 2797.12639512 -805.00318376 2800.98922262 -800.66233826 2804.71409607 C-798.67222494 2806.442455 -796.81872958 2808.27214727 -794.98828125 2810.16796875 C-791.85982161 2813.33886873 -788.61972773 2816.29366835 -785.2421875 2819.1953125 C-783.02852515 2821.13274662 -780.86603103 2823.11926063 -778.7097168 2825.12011719 C-773.52523945 2829.92914695 -768.2145865 2834.48582062 -762.703125 2838.921875 C-759.8815463 2841.25627465 -757.18237413 2843.68787473 -754.48828125 2846.16796875 C-749.15853732 2851.06171106 -743.62057874 2855.62904191 -737.98828125 2860.16796875 C-736.77000562 2861.1656568 -735.55260818 2862.16441786 -734.3359375 2863.1640625 C-726.82390482 2869.32484826 -719.22582739 2875.34743082 -711.48583984 2881.21948242 C-707.04264283 2884.59054965 -702.63721362 2888.00428896 -698.25317383 2891.4519043 C-689.70295943 2898.16617743 -680.97048098 2904.53812858 -672.04003906 2910.73535156 C-670.0824136 2912.10224188 -668.13853117 2913.4861915 -666.19921875 2914.87890625 C-627.17013227 2942.85454304 -586.16214628 2968.22723997 -543.98828125 2991.16796875 C-543.38169678 2991.49800903 -542.7751123 2991.82804932 -542.15014648 2992.16809082 C-508.53806709 3010.43198318 -474.26862344 3027.36309494 -438.98828125 3042.16796875 C-438.35460632 3042.434422 -437.7209314 3042.70087524 -437.0680542 3042.97540283 C-354.46873958 3077.66244137 -268.50488538 3103.64113772 -73.36328125 3133.41796875 C-72.06834747 3133.5338031 -72.06834747 3133.5338031 -70.74725342 3133.65197754 C-64.16578722 3134.23177976 -57.57998058 3134.72022685 -50.98828125 3135.16796875 C-49.714758 3135.25517181 -48.44123474 3135.34237488 -47.12911987 3135.43222046 C-22.01407361 3137.11676632 3.04679031 3137.53366324 28.21340561 3137.48602676 C31.25063887 3137.48037303 34.28786651 3137.47756091 37.32510376 3137.47494507 C66.69395191 3137.43820261 95.94266708 3137.07152804 125.21203613 3134.42120361 C128.13914864 3134.15644255 131.06704568 3133.90186949 133.99511719 3133.64794922 C227.6295944 3125.41989234 320.00593452 3106.16871674 544.01171875 3022.16796875 C545.07632324 3021.66313965 546.14092773 3021.15831055 547.23779297 3020.63818359 C569.18205245 3010.23228189 590.94584367 2999.54064439 612.17822266 2987.74072266 C615.10125448 2986.11827125 618.03089095 2984.50818083 620.9609375 2982.8984375 C635.82812843 2974.69229747 650.37129409 2966.01930857 664.83007812 2957.12109375 C667.60744772 2955.41614004 670.39280179 2953.7258141 673.18359375 2952.04296875 C684.74368526 2945.03431424 696.01131243 2937.59703561 707.26171875 2930.10546875 C708.3923877 2929.35352737 708.3923877 2929.35352737 709.54589844 2928.58639526 C720.49841292 2921.29402317 731.29694471 2913.8048612 742.01171875 2906.16796875 C742.89698242 2905.53947021 743.78224609 2904.91097168 744.69433594 2904.26342773 C756.21447318 2896.06779847 767.48413722 2887.55729722 778.6953125 2878.9453125 C780.68238412 2877.42066227 782.67355957 2875.90174613 784.66796875 2874.38671875 C792.64231549 2868.30726629 800.42865121 2862.01225872 808.18701172 2855.66064453 C809.79395571 2854.34610673 811.40451066 2853.03598573 813.015625 2851.7265625 C818.45868143 2847.29764177 823.83540388 2842.79725141 829.17871094 2838.24902344 C832.56060589 2835.37571423 835.9866235 2832.56914644 839.44921875 2829.79296875 C845.13950736 2825.16752947 850.4567147 2820.17900288 855.80078125 2815.1640625 C858.1853136 2812.92882142 860.59933935 2810.74096595 863.07421875 2808.60546875 C867.59130602 2804.70086789 871.96279305 2800.64009378 876.33618164 2796.57641602 C878.61046538 2794.4645354 880.89100894 2792.35995746 883.17944336 2790.26342773 C893.92138707 2780.37930289 904.2497786 2770.08447492 914.55761719 2759.75244141 C917.0360556 2757.26825113 919.51903621 2754.78865652 922.00331879 2752.31031227 C924.41481274 2749.90332507 926.8224645 2747.49250966 929.23046875 2745.08203125 C930.10973022 2744.20479401 930.9889917 2743.32755676 931.89489746 2742.42373657 C936.27384039 2738.02820273 940.5066439 2733.56943805 944.5513916 2728.86410522 C946.29561512 2726.83822963 948.10702067 2724.88614693 949.94921875 2722.94921875 C950.61695312 2722.24410156 951.2846875 2721.53898437 951.97265625 2720.8125 C953.33203125 2719.3828125 954.69140625 2717.953125 956.05078125 2716.5234375 C960.48991287 2711.83578307 964.80028309 2707.06107523 969.01171875 2702.16796875 C969.49415039 2701.60770996 969.97658203 2701.04745117 970.47363281 2700.47021484 C971.86391391 2698.85082558 973.25080457 2697.22859628 974.63671875 2695.60546875 C978.41594613 2691.18481564 982.21310358 2686.78082938 986.03271484 2682.39501953 C991.81740568 2675.74931993 997.47280769 2669.02088837 1003.01171875 2662.16796875 C1004.04103363 2660.90833662 1005.07102921 2659.64926052 1006.1015625 2658.390625 C1012.05773824 2651.10666174 1017.93145006 2643.77432914 1023.6328125 2636.2890625 C1025.99218353 2633.1935987 1028.37650279 2630.1185399 1030.76171875 2627.04296875 C1037.32740972 2618.52927309 1043.67088382 2609.84966046 1050.01171875 2601.16796875 C1050.57858398 2600.39195312 1051.14544922 2599.6159375 1051.72949219 2598.81640625 C1066.87250569 2578.05085606 1081.41778918 2556.81770903 1095.19426394 2535.11915934 C1096.34247979 2533.33365314 1097.51276561 2531.56197945 1098.71295881 2529.81098878 C1102.06533637 2524.80079731 1104.40950734 2520.30339752 1106.08216095 2514.49781227 C1108.82267278 2506.47958966 1112.3677448 2499.34195144 1120.01171875 2495.16796875 C1136.45113854 2489.67898212 1156.11057142 2491.79227737 1173.29397106 2492.1100844 C1181.02786622 2492.24760188 1188.75963829 2492.23128896 1196.49445558 2492.2105347 C1210.76525901 2492.17645583 1225.0329212 2492.26291843 1239.30281067 2492.41898727 C1253.42380856 2492.57303053 1267.54349698 2492.67294003 1281.66532898 2492.70116043 C1282.54455935 2492.70294766 1283.42378972 2492.70473489 1284.32966344 2492.70657628 C1288.79514744 2492.7153734 1293.26063258 2492.72320921 1297.72611898 2492.73067506 C1329.32497547 2492.78523246 1360.92212441 2492.9602496 1392.52001953 2493.20654297 C1423.20970604 2493.44548045 1453.89892467 2493.62958274 1484.58935547 2493.73974609 C1485.53597655 2493.74316577 1486.48259764 2493.74658545 1487.45790421 2493.75010876 C1496.9645858 2493.78439138 1506.47127099 2493.81756238 1515.97795932 2493.8499191 C1535.3427937 2493.91585405 1554.70759765 2493.98920659 1574.0723877 2494.06704712 C1574.96267652 2494.07061666 1575.85296535 2494.0741862 1576.77023263 2494.0778639 C1636.18477245 2494.31693158 1695.59836146 2494.72888951 1755.01171875 2495.16796875 C1754.29970415 2499.80211144 1753.12695236 2503.94103526 1751.4140625 2508.29296875 C1751.14838974 2508.9800441 1750.88271698 2509.66711945 1750.60899353 2510.37501526 C1749.7292521 2512.64207103 1748.83993897 2514.9052058 1747.94921875 2517.16796875 C1747.64203918 2517.95307831 1747.33485962 2518.73818787 1747.01837158 2519.54708862 C1732.35706249 2556.99576823 1716.13148381 2593.78310467 1699.01171875 2630.16796875 C1698.54894531 2631.1528125 1698.08617188 2632.13765625 1697.609375 2633.15234375 C1684.32605007 2661.33609404 1670.63199948 2689.46450221 1655.40527344 2716.65429688 C1653.87670216 2719.41150954 1652.38278723 2722.18566959 1650.89453125 2724.96484375 C1643.84697562 2738.12531388 1636.50272899 2751.07489165 1628.91552734 2763.93115234 C1626.89027038 2767.37445279 1624.88110896 2770.82677774 1622.875 2774.28125 C1614.52347152 2788.64651027 1605.98290422 2802.86490798 1597.08056641 2816.8984375 C1595.50604878 2819.38674763 1593.93884256 2821.8790851 1592.37646484 2824.375 C1584.86532199 2836.35431192 1577.12072052 2848.16446906 1569.26171875 2859.91796875 C1568.65020966 2860.83384766 1568.03870056 2861.74972656 1567.40866089 2862.69335938 C1553.98573211 2882.79219005 1540.27583475 2902.65479642 1526.01171875 2922.16796875 C1525.18921631 2923.29549561 1525.18921631 2923.29549561 1524.35009766 2924.44580078 C1515.07379468 2937.15024455 1505.5815513 2949.68362719 1496.01171875 2962.16796875 C1495.06246401 2963.40882664 1494.11324117 2964.64970892 1493.1640625 2965.890625 C1484.29657773 2977.46747638 1475.28335849 2988.91193129 1466.01171875 3000.16796875 C1464.55327534 3001.95954581 1463.09494358 3003.75121377 1461.63671875 3005.54296875 C1457.84067381 3010.18551848 1453.97776352 3014.76713923 1450.09375 3019.3359375 C1447.23350055 3022.70609215 1444.41930641 3026.10805285 1441.63671875 3029.54296875 C1433.71418307 3039.26866219 1425.41009354 3048.68194421 1416.98828125 3057.9765625 C1415.14215314 3060.02335671 1413.32178591 3062.08928432 1411.51171875 3064.16796875 C1404.75195927 3071.91998651 1397.80726018 3079.50579443 1390.84765625 3087.078125 C1388.93065315 3089.16427543 1387.01972467 3091.25575854 1385.11328125 3093.3515625 C1380.74150014 3098.15174543 1376.34751326 3102.89655311 1371.70680237 3107.44044495 C1370.09713059 3109.08092231 1368.62124106 3110.77433853 1367.14038086 3112.53100586 C1361.63700141 3118.85180367 1355.63163353 3124.69181188 1349.703125 3130.609375 C1348.40935441 3131.90382065 1347.11573218 3133.19841459 1345.82225037 3134.4931488 C1343.12164636 3137.19522026 1340.41925982 3139.89549256 1337.71557617 3142.59448242 C1334.26827326 3146.03608865 1330.82548025 3149.4821658 1327.3840189 3152.92961216 C1324.71681663 3155.60044586 1322.04721507 3158.26887119 1319.37690544 3160.93659782 C1318.10724655 3162.20559458 1316.83831632 3163.47532085 1315.57016182 3164.745821 C1303.62024275 3176.71299466 1303.62024275 3176.71299466 1297.50889587 3181.89097595 C1295.56666479 3183.54757026 1293.78408725 3185.33230137 1292.01171875 3187.16796875 C1288.95054622 3190.27042877 1285.78029607 3193.14903299 1282.4765625 3195.98828125 C1279.09186203 3198.98140782 1275.80638295 3202.07640029 1272.51171875 3205.16796875 C1267.42475468 3209.93328626 1262.31709474 3214.64535315 1257.01171875 3219.16796875 C1254.71916206 3221.12526195 1252.42773561 3223.08387349 1250.13671875 3225.04296875 C1249.52779785 3225.5630249 1248.91887695 3226.08308105 1248.29150391 3226.61889648 C1244.75452511 3229.64754709 1241.26736912 3232.71984058 1237.82421875 3235.85546875 C1233.66449666 3239.62965562 1229.36137726 3243.18582987 1224.99609375 3246.71875 C1221.62409858 3249.48608112 1218.3152285 3252.31962118 1215.01171875 3255.16796875 C1209.08939757 3260.26681439 1203.08207748 3265.24583925 1197.01171875 3270.16796875 C1195.79773808 3271.16352742 1194.58422651 3272.15965829 1193.37109375 3273.15625 C1185.75971077 3279.3951972 1178.05664297 3285.48655976 1170.21923828 3291.43920898 C1165.86641434 3294.74534634 1161.54788839 3298.08846746 1157.26171875 3301.48046875 C1144.01256504 3311.93837911 1130.59787962 3322.17686677 1116.79882812 3331.89892578 C1114.11869564 3333.80211275 1111.46335268 3335.73902079 1108.80493164 3337.67236328 C1052.31779333 3378.71008071 992.97348709 3416.14782386 932.01171875 3450.16796875 C930.87782715 3450.80138184 929.74393555 3451.43479492 928.57568359 3452.08740234 C912.77850075 3460.90301909 896.86984144 3469.45348691 880.78369141 3477.73339844 C877.45860799 3479.45421842 874.15058633 3481.20572044 870.84448242 3482.96264648 C849.85851045 3494.10446212 828.50173251 3504.42409984 806.89648438 3514.3046875 C804.97153146 3515.18637578 803.04806472 3516.07123275 801.125 3516.95703125 C770.12033816 3531.23507332 738.83009831 3544.79735102 707.01171875 3557.16796875 C706.23957031 3557.46832031 705.46742188 3557.76867188 704.671875 3558.078125 C679.28951164 3567.94006236 653.78078834 3577.36523372 628.01171875 3586.16796875 C627.28031677 3586.41828857 626.54891479 3586.6686084 625.79534912 3586.92651367 C553.51735952 3611.64588582 479.82763269 3631.73560832 405.01171875 3647.16796875 C404.09058289 3647.35877014 403.16944702 3647.54957153 402.22039795 3647.74615479 C323.88631292 3663.95090003 244.48542336 3674.75736513 164.69921875 3680.41796875 C163.08957748 3680.53366714 163.08957748 3680.53366714 161.44741821 3680.65170288 C154.00990024 3681.1784897 146.56973525 3681.63664908 139.12507248 3682.05015564 C137.66451734 3682.13157719 136.20402309 3682.2140957 134.74357986 3682.29750061 C103.40202108 3684.08391659 72.11716998 3684.48523228 40.72875977 3684.42871094 C34.35543622 3684.41732365 27.98227991 3684.42410193 21.60896206 3684.43558884 C-9.64167152 3684.4833521 -40.78555831 3683.93592988 -71.98828125 3682.16796875 C-72.68275486 3682.12909042 -73.37722847 3682.0902121 -74.09274673 3682.05015564 C-82.2936747 3681.5885789 -90.48540961 3681.03780034 -98.67578125 3680.41796875 C-99.78531158 3680.33559967 -100.89484192 3680.25323059 -102.03799438 3680.16836548 C-164.08036753 3675.53114844 -225.69727419 3667.81761607 -286.98828125 3657.16796875 C-287.90337463 3657.00897095 -288.81846802 3656.84997314 -289.7612915 3656.68615723 C-354.14546436 3645.45106339 -418.29949975 3630.72475077 -480.98828125 3612.16796875 C-481.8553772 3611.91160645 -482.72247314 3611.65524414 -483.61584473 3611.39111328 C-545.81592708 3592.96267157 -606.98068475 3571.82739965 -666.98828125 3547.16796875 C-667.78945374 3546.83903625 -668.59062622 3546.51010376 -669.41607666 3546.17120361 C-691.54448324 3537.07585327 -713.4324767 3527.51985994 -735.12353516 3517.42602539 C-738.82351932 3515.70495091 -742.5306824 3513.99999923 -746.23974609 3512.29858398 C-762.1947389 3504.96184005 -777.97775973 3497.33295486 -793.67236328 3489.45629883 C-796.76143602 3487.90603286 -799.85412521 3486.3631367 -802.9477787 3484.82203674 C-817.38434926 3477.62631336 -831.66914117 3470.20235253 -845.78118896 3462.38589478 C-848.68919844 3460.78118597 -851.6135345 3459.2097846 -854.54296875 3457.64453125 C-867.45036785 3450.73340913 -880.14292407 3443.51278555 -892.75146484 3436.07177734 C-896.19476529 3434.04652038 -899.64709024 3432.03735896 -903.1015625 3430.03125 C-917.46741451 3421.6793775 -931.68665278 3413.13878922 -945.72045898 3404.2355957 C-948.20292549 3402.66488156 -950.6895518 3401.10177551 -953.17993164 3399.54370117 C-964.40386165 3392.50905633 -975.47762989 3385.26941098 -986.48706055 3377.90405273 C-989.18295284 3376.10067141 -991.88132076 3374.30104334 -994.58007812 3372.50195312 C-1007.94452718 3363.58338622 -1021.25040329 3354.57879291 -1034.36328125 3345.29296875 C-1035.05695801 3344.80231934 -1035.75063477 3344.31166992 -1036.46533203 3343.80615234 C-1044.68083042 3337.98369628 -1052.84733772 3332.09412203 -1060.98828125 3326.16796875 C-1061.76461914 3325.60319824 -1062.54095703 3325.03842773 -1063.34082031 3324.45654297 C-1074.37995766 3316.41218599 -1085.23258545 3308.15918862 -1095.98242188 3299.73291016 C-1098.84258687 3297.50145232 -1101.72829148 3295.30474051 -1104.61328125 3293.10546875 C-1110.14980076 3288.85732171 -1115.56793652 3284.47568222 -1120.97045898 3280.05883789 C-1125.33085111 3276.49838324 -1129.7334256 3273.00041558 -1134.17578125 3269.54296875 C-1139.88008813 3265.0954474 -1145.41441802 3260.47434647 -1150.9140625 3255.77734375 C-1153.69561213 3253.4052784 -1156.52176786 3251.09304163 -1159.36328125 3248.79296875 C-1165.70954779 3243.62398064 -1171.86751927 3238.24497681 -1178.03564453 3232.86621094 C-1179.97186936 3231.18224246 -1181.91440919 3229.50589255 -1183.859375 3227.83203125 C-1190.30436933 3222.28101206 -1196.68312943 3216.67749568 -1202.92919922 3210.90307617 C-1205.51798955 3208.51022036 -1208.12870718 3206.15482862 -1210.80078125 3203.85546875 C-1215.3809923 3199.88468287 -1219.78100052 3195.72163126 -1224.20263672 3191.57641602 C-1228.24937432 3187.78404766 -1232.32331116 3184.02489316 -1236.42578125 3180.29296875 C-1240.40158106 3176.66312207 -1244.24600909 3172.94656625 -1248.01747131 3169.1063385 C-1249.79984911 3167.35329923 -1251.6264126 3165.7301437 -1253.53295898 3164.11499023 C-1258.93902845 3159.41342874 -1263.96623897 3154.33445816 -1269.0234375 3149.265625 C-1270.07126071 3148.21847739 -1271.11923215 3147.17147809 -1272.16734314 3146.12461853 C-1274.35155113 3143.94187549 -1276.53396457 3141.7573585 -1278.71508789 3139.5715332 C-1281.49082006 3136.79010451 -1284.27101907 3134.01319099 -1287.05259037 3131.23760319 C-1289.21387328 3129.07995854 -1291.37273839 3126.91990728 -1293.5309124 3124.75915337 C-1294.55429446 3123.73511105 -1295.57840086 3122.71179201 -1296.60328865 3121.68925667 C-1301.76058472 3116.54120694 -1306.83767221 3111.36729536 -1311.56260681 3105.81382751 C-1313.74543409 3103.29387954 -1316.10287516 3100.99724764 -1318.48828125 3098.66796875 C-1322.23925662 3095.00525163 -1325.722712 3091.21883471 -1329.15429688 3087.25585938 C-1332.17920633 3083.81216586 -1335.33649791 3080.49521219 -1338.48828125 3077.16796875 C-1342.89691496 3072.51390595 -1347.21838966 3067.8087926 -1351.42089844 3062.96728516 C-1353.36797079 3060.73209462 -1355.36322594 3058.54326872 -1357.36328125 3056.35546875 C-1360.49250952 3052.89266793 -1363.49328474 3049.36117872 -1366.42578125 3045.73046875 C-1369.50164713 3041.92709372 -1372.67581291 3038.26714223 -1375.98828125 3034.66796875 C-1380.02338146 3030.27902129 -1383.82658429 3025.75934109 -1387.5703125 3021.12109375 C-1390.34329561 3017.73438093 -1393.19067834 3014.41855132 -1396.05078125 3011.10546875 C-1400.06479263 3006.44651579 -1403.99245411 3001.74077796 -1407.8046875 2996.9140625 C-1410.06857936 2994.06698562 -1412.36531534 2991.24889866 -1414.66699219 2988.43237305 C-1420.91640433 2980.78071083 -1427.00283005 2973.02695493 -1432.98828125 2965.16796875 C-1434.52908432 2963.16730336 -1436.0707762 2961.16732222 -1437.61328125 2959.16796875 C-1439.40666472 2956.83595196 -1441.1974651 2954.50195734 -1442.98828125 2952.16796875 C-1443.89852051 2950.98291748 -1443.89852051 2950.98291748 -1444.82714844 2949.77392578 C-1452.62163483 2939.61822457 -1460.33675523 2929.43366394 -1467.71044922 2918.96826172 C-1469.65056226 2916.23490413 -1471.62246201 2913.52484399 -1473.59179688 2910.8125 C-1476.40186886 2906.93906744 -1479.19723066 2903.05512315 -1481.98828125 2899.16796875 C-1482.74407471 2898.11585205 -1482.74407471 2898.11585205 -1483.51513672 2897.04248047 C-1496.83372982 2878.42765542 -1509.36115174 2859.25445549 -1521.98828125 2840.16796875 C-1522.61688049 2839.21781891 -1522.61688049 2839.21781891 -1523.25817871 2838.24847412 C-1531.80336684 2825.32303602 -1540.13906872 2812.28275717 -1548.21923828 2799.06152344 C-1549.45999994 2797.03205792 -1550.70339206 2795.00419937 -1551.94873047 2792.97753906 C-1561.99373093 2776.62742019 -1571.71332831 2760.12146322 -1581.15087891 2743.41357422 C-1582.85099479 2740.4104729 -1584.56332347 2737.4148129 -1586.28125 2734.421875 C-1614.49827878 2685.13473603 -1639.94514918 2634.06269979 -1662.98828125 2582.16796875 C-1663.26395935 2581.54742615 -1663.53963745 2580.92688354 -1663.82366943 2580.28753662 C-1704.04620481 2489.6285996 -1736.78935799 2395.69790557 -1817.98828125 1928.16796875 C-1818.02881087 1927.28332884 -1818.0693405 1926.39868893 -1818.11109829 1925.48724174 C-1818.86465118 1908.63936641 -1819.15107335 1891.82439263 -1819.15625 1874.9609375 C-1819.15948167 1872.41547123 -1819.16284699 1869.87000512 -1819.16633606 1867.32453918 C-1819.17226947 1862.01933494 -1819.17422615 1856.71414232 -1819.17358398 1851.40893555 C-1819.17305452 1846.0739427 -1819.18037973 1840.73903324 -1819.1940918 1835.40405273 C-1819.27701171 1802.60187316 -1818.91551117 1769.91817582 -1816.98828125 1737.16796875 C-1816.94827625 1736.47673038 -1816.90827126 1735.78549202 -1816.86705399 1735.07330704 C-1816.38150622 1726.70276815 -1815.81037609 1718.34092165 -1815.17578125 1709.98046875 C-1815.09180084 1708.85360657 -1815.00782043 1707.72674438 -1814.92129517 1706.56573486 C-1809.38019576 1632.54638935 -1799.41123855 1558.98386032 -1784.98828125 1486.16796875 C-1784.79832581 1485.20663025 -1784.60837036 1484.24529175 -1784.41265869 1483.25482178 C-1769.90409123 1410.0604875 -1750.43587458 1337.99231454 -1726.98828125 1267.16796875 C-1726.70102173 1266.29865723 -1726.41376221 1265.4293457 -1726.11779785 1264.53369141 C-1709.46328809 1214.1899443 -1690.2826129 1164.72840221 -1668.98828125 1116.16796875 C-1668.37539815 1114.76550162 -1667.76260954 1113.3629932 -1667.14990234 1111.96044922 C-1658.67828992 1092.58859596 -1649.88509862 1073.42194641 -1640.58154297 1054.43554688 C-1638.09816133 1049.34244545 -1635.67066127 1044.22306147 -1633.23828125 1039.10546875 C-1625.20088778 1022.25987304 -1616.77498944 1005.63439827 -1607.98828125 989.16796875 C-1607.46218262 988.18022461 -1606.93608398 987.19248047 -1606.39404297 986.17480469 C-1598.14723772 970.70996111 -1589.69202456 955.37998464 -1580.98828125 940.16796875 C-1580.40997559 939.15299316 -1579.83166992 938.13801758 -1579.23583984 937.09228516 C-1566.18965279 914.20566704 -1552.61512556 891.65134935 -1538.43652344 869.44775391 C-1536.97512359 867.14725631 -1535.53090555 864.83672091 -1534.08984375 862.5234375 C-1517.61575478 836.19615034 -1500.05626742 810.42651711 -1481.98828125 785.16796875 C-1481.46202148 784.43143066 -1480.93576172 783.69489258 -1480.39355469 782.93603516 C-1476.61777031 777.66100904 -1472.81237486 772.40805929 -1468.98828125 767.16796875 C-1468.42109375 766.39066406 -1467.85390625 765.61335937 -1467.26953125 764.8125 C-1459.46564234 754.13441093 -1451.53511634 743.56181974 -1443.46386719 733.08447266 C-1442.08640385 731.29541125 -1440.7123924 729.50377073 -1439.33984375 727.7109375 C-1429.57950689 714.97054849 -1419.61831973 702.40581758 -1409.46484375 689.9765625 C-1408.15780584 688.37561395 -1406.85404769 686.77198899 -1405.55078125 685.16796875 C-1401.12240535 679.72739265 -1396.6224246 674.35340879 -1392.078125 669.00976562 C-1389.12822715 665.53516606 -1386.23145405 662.02321181 -1383.36328125 658.48046875 C-1379.7854491 654.08139042 -1376.04269605 649.87246497 -1372.22265625 645.68359375 C-1369.97646559 643.1546658 -1367.85296907 640.55746961 -1365.73828125 637.91796875 C-1361.07820143 632.15418582 -1356.05253604 626.78033253 -1350.984375 621.37890625 C-1348.74913392 618.9943739 -1346.56127845 616.58034815 -1344.42578125 614.10546875 C-1339.42939544 608.32533615 -1334.18819449 602.76430805 -1328.98828125 597.16796875 C-1328.39466797 596.52778809 -1327.80105469 595.88760742 -1327.18945312 595.22802734 C-1325.35319083 593.24815492 -1323.51481984 591.27026235 -1321.67578125 589.29296875 C-1321.11366943 588.68702881 -1320.55155762 588.08108887 -1319.97241211 587.45678711 C-1317.20416635 584.48659255 -1314.40102398 581.57153041 -1311.5078125 578.72265625 C-1309.21100398 576.44630951 -1307.05422536 574.11503373 -1304.96337891 571.64916992 C-1300.18365977 566.15823902 -1295.01753975 561.05284877 -1289.8671875 555.9140625 C-1288.79761961 554.84381908 -1287.72820004 553.77342741 -1286.65892029 552.70289612 C-1284.42909901 550.47160962 -1282.19750285 548.24211818 -1279.96459961 546.01391602 C-1277.12263693 543.17764987 -1274.28518883 540.33691644 -1271.44906712 537.49481106 C-1269.24509899 535.28720542 -1267.03872506 533.08201654 -1264.83164787 530.87751961 C-1263.78527676 529.83180896 -1262.73962951 528.7853734 -1261.69476509 527.73815727 C-1256.48262819 522.516862 -1251.25037282 517.36810396 -1245.62644958 512.58595276 C-1243.10850722 510.40644414 -1240.81496839 508.05072064 -1238.48828125 505.66796875 C-1234.82556413 501.91699338 -1231.03914721 498.433538 -1227.07617188 495.00195312 C-1223.63247836 491.97704367 -1220.31552469 488.81975209 -1216.98828125 485.66796875 C-1212.33421845 481.25933504 -1207.6291051 476.93786034 -1202.78759766 472.73535156 C-1200.55240712 470.78827921 -1198.36358122 468.79302406 -1196.17578125 466.79296875 C-1192.71298043 463.66374048 -1189.18149122 460.66296526 -1185.55078125 457.73046875 C-1181.74740622 454.65460287 -1178.08745473 451.48043709 -1174.48828125 448.16796875 C-1170.07187981 444.1081323 -1165.52664603 440.27473054 -1160.859375 436.5078125 C-1157.75841358 433.98063441 -1154.71656387 431.39177981 -1151.67578125 428.79296875 C-1146.59920257 424.46626181 -1141.40762118 420.31314273 -1136.14257812 416.21875 C-1132.42081748 413.31717802 -1128.77999808 410.34079691 -1125.17578125 407.29296875 C-1119.71306196 402.70312072 -1114.08298981 398.36413986 -1108.40039062 394.05078125 C-1103.95509023 390.67630433 -1099.54851132 387.2607956 -1095.17578125 383.79296875 C-1081.15851015 372.71756885 -1066.72899665 362.1807434 -1052.21484375 351.76953125 C-1049.94689909 350.13820264 -1047.68548586 348.49818917 -1045.42578125 346.85546875 C-1044.66152832 346.30068848 -1043.89727539 345.7459082 -1043.10986328 345.17431641 C-1041.69835821 344.14935696 -1040.28774161 343.1231717 -1038.87841797 342.09521484 C-1025.29192675 332.24722229 -1011.298449 322.94843882 -997.3984375 313.55224609 C-995.54412233 312.29772256 -993.69092775 311.04154105 -991.83886719 309.78369141 C-980.34251651 301.97665002 -968.73902018 294.45624242 -956.83380127 287.28881836 C-952.78991818 284.83282507 -948.83347792 282.24046466 -944.86328125 279.66796875 C-931.08028553 270.82481872 -916.95618583 262.55414362 -902.84039307 254.25775146 C-900.0993612 252.64492813 -897.3625446 251.02498344 -894.625 249.40625 C-860.78647346 229.46018462 -826.06407158 210.97943248 -790.85107422 193.58544922 C-787.841626 192.09535402 -784.84186241 190.58715338 -781.84472656 189.07250977 C-778.56783987 187.42024178 -775.27905738 185.79236358 -771.98828125 184.16796875 C-771.03099121 183.69488281 -770.07370117 183.22179687 -769.08740234 182.734375 C-750.03009332 173.34772512 -730.73492224 164.57211321 -711.27734375 156.04931641 C-708.57939803 154.86734849 -705.88374124 153.68053247 -703.19140625 152.48583984 C-614.290667 113.04584212 -521.57661337 81.80450522 -55.43669415 1.2735796 C-53.72936702 1.19993505 -52.02211199 1.12460839 -50.31491566 1.04799175 C-33.53705328 0.30157357 -16.79332442 0.00520348 0 0 Z " fill="#FF0000" transform="translate(1818.98828125,-0.16796875)"/>
<path d="M0 0 C1.13099121 0.50644043 2.26198242 1.01288086 3.42724609 1.53466797 C36.01872244 16.2150654 67.31428763 33.06262881 97 53 C97.64372559 53.43054687 98.28745117 53.86109375 98.95068359 54.3046875 C118.38420644 67.3471908 137.25921553 81.31827913 154.94897461 96.65185547 C158.53459237 99.75942466 162.17416861 102.7791257 165.875 105.75 C169.78518822 108.92166072 173.39049472 112.23120053 176.85546875 115.8828125 C178.66965045 117.67386256 180.51643602 119.31133917 182.453125 120.96484375 C187.84644712 125.6487313 192.86175679 130.71202732 197.90014648 135.76977539 C199.5592732 137.43426277 201.22368051 139.09333447 202.88867188 140.75195312 C208.47049823 146.33028797 213.87592311 151.99455028 219 158 C220.61967817 159.77570221 222.24411718 161.54708307 223.875 163.3125 C228.79618347 168.71470141 233.41501653 174.31229898 238 180 C239.00934094 181.23005016 240.01982598 182.4591621 241.03125 183.6875 C272.23164392 221.65566101 297.98141682 263.12626018 320 307 C320.75192627 308.48983398 320.75192627 308.48983398 321.51904297 310.00976562 C327.59429076 322.11412539 332.95980311 334.46152465 338.0625 347 C338.48888763 348.0460289 338.48888763 348.0460289 338.92388916 349.1131897 C339.73704798 351.11506417 340.54381621 353.11936755 341.34765625 355.125 C342.04387085 356.86136719 342.04387085 356.86136719 342.75415039 358.6328125 C344.01071065 362.02894794 345.0051954 365.51818389 346 369 C819.88 369 1293.76 369 1782 369 C1776.37641723 374.62358277 1776.37641723 374.62358277 1773.20703125 376.875 C1772.15249756 377.62994751 1772.15249756 377.62994751 1771.07666016 378.40014648 C1770.3294873 378.92809814 1769.58231445 379.4560498 1768.8125 380 C1767.191281 381.15737665 1765.57019077 382.31493371 1763.94921875 383.47265625 C1763.12470215 384.05934082 1762.30018555 384.64602539 1761.45068359 385.25048828 C1758.39606691 387.43114012 1755.35943126 389.63593631 1752.32299805 391.84179688 C1744.43165158 397.57075839 1736.46785602 403.18868661 1728.46801758 408.76489258 C1722.12378972 413.19422991 1715.84077372 417.70238882 1709.578125 422.24609375 C1703.88272133 426.37450805 1698.14470268 430.4388006 1692.3894043 434.4831543 C1687.26733947 438.08875226 1682.19138318 441.75420968 1677.125 445.4375 C1670.94841239 449.92548069 1664.69654921 454.28141847 1658.375 458.5625 C1651.7891414 463.02446924 1645.38315223 467.6578051 1639.05810547 472.48071289 C1633.98327899 476.32499171 1628.77441809 479.93573192 1623.5 483.5 C1616.799026 488.02843208 1610.27896458 492.72669934 1603.84326172 497.62329102 C1598.71407181 501.50890519 1593.45926007 505.17192353 1588.13769531 508.7878418 C1582.27326797 512.78275128 1576.52334469 516.92466447 1570.78173828 521.09350586 C1565.01964037 525.27396039 1559.21490269 529.38955107 1553.39038086 533.48242188 C1548.26803484 537.08832663 1543.19171244 540.75397031 1538.125 544.4375 C1531.94841239 548.92548069 1525.69654921 553.28141847 1519.375 557.5625 C1512.78997194 562.02390655 1506.3853467 566.65731157 1500.06030273 571.47851562 C1494.179186 575.9323331 1488.10792068 580.0771891 1482.00048828 584.21264648 C1476.42745525 587.99576309 1470.96670929 591.90052866 1465.55566406 595.91088867 C1460.97834135 599.29857281 1456.34750967 602.60211383 1451.6875 605.875 C1445.75930818 610.03960545 1439.86609341 614.24836385 1434 618.5 C1427.49817042 623.21143015 1420.95960067 627.86610103 1414.39013672 632.48266602 C1409.26780058 636.0883889 1404.19162055 639.75403712 1399.125 643.4375 C1392.94841239 647.92548069 1386.69654921 652.28141847 1380.375 656.5625 C1373.78997194 661.02390655 1367.3853467 665.65731157 1361.06030273 670.47851562 C1355.179186 674.9323331 1349.10792068 679.0771891 1343.00048828 683.21264648 C1337.42745525 686.99576309 1331.96670929 690.90052866 1326.55566406 694.91088867 C1321.97834135 698.29857281 1317.34750967 701.60211383 1312.6875 704.875 C1306.75930637 709.03960672 1300.86617701 713.24847745 1295 717.5 C1285.6903286 724.24359545 1276.29947466 730.86835076 1266.89550781 737.47949219 C1258.13121284 743.6433473 1249.40724456 749.85741881 1240.73071289 756.14428711 C1234.98212768 760.30448828 1229.19285249 764.40377658 1223.38793945 768.48486328 C1218.29095671 772.07395681 1213.23318566 775.71423156 1208.1875 779.375 C1201.0028574 784.58542777 1193.74912513 789.68980941 1186.46826172 794.76464844 C1180.22413724 799.12427944 1174.03208477 803.55079192 1167.87695312 808.03515625 C1166.51479719 809.02557111 1165.13696228 809.99466559 1163.74681419 810.94539094 C1161.62013464 812.53614109 1159.8428946 814.0881705 1157.9455424 815.91701865 C1144.98457154 827.58092782 1130.31325954 826.70070856 1113.9002306 826.50213352 C1109.7801285 826.46575679 1105.66047243 826.49973922 1101.54036623 826.52446246 C1094.33265915 826.55818392 1087.12608653 826.54777354 1079.91842651 826.50784111 C1069.20130437 826.44866833 1058.4850125 826.45869279 1047.76779315 826.48254874 C1029.73684769 826.52074193 1011.70636016 826.50333443 993.67545891 826.4539566 C975.82928406 826.40526737 957.98335997 826.38146364 940.13711739 826.39070892 C939.02643584 826.39127039 937.9157543 826.39183187 936.77141574 826.39241035 C931.13055177 826.39539088 925.48968817 826.39881421 919.84882457 826.40240797 C879.92118084 826.42704977 839.99375453 826.3961772 800.06616211 826.33251953 C761.28326485 826.27081426 722.50047756 826.23434054 683.7175293 826.23193359 C681.92353395 826.23180721 681.92353395 826.23180721 680.09329628 826.23167827 C668.08232307 826.2308599 656.0713499 826.23055351 644.06037667 826.23062215 C619.59384458 826.23075035 595.12731334 826.22746202 570.66078186 826.22210693 C569.53591367 826.22186494 568.41104549 826.22162295 567.25209038 826.22137363 C492.16801247 826.2048294 417.08399415 826.10864939 342 826 C341.68508574 826.74647954 341.37017149 827.49295908 341.04571438 828.26205921 C339.6040989 831.6780501 338.16131187 835.09354499 336.71850586 838.5090332 C336.22315086 839.68329109 335.72779587 840.85754898 335.21743011 842.06739044 C331.79324982 850.17019066 328.29356862 858.22052341 324.5625 866.1875 C324.02085205 867.34564209 323.4792041 868.50378418 322.92114258 869.69702148 C313.11299894 890.49850105 301.95953131 910.37434092 290 930 C289.45311523 930.8976709 288.90623047 931.7953418 288.34277344 932.72021484 C266.7224102 968.00602037 240.94286562 1001.02544187 212.6640625 1031.22265625 C210.82485404 1033.18706904 208.99056773 1035.15602005 207.15625 1037.125 C205.83360648 1038.54192169 204.51069333 1039.95859174 203.1875 1041.375 C202.57737061 1042.02903809 201.96724121 1042.68307617 201.33862305 1043.35693359 C190.80391113 1054.60064379 190.80391113 1054.60064379 185.0625 1059.4375 C182.30466668 1061.80965931 179.72042312 1064.26453842 177.1875 1066.875 C173.32104546 1070.8018679 169.13881026 1074.2107621 164.84375 1077.65625 C162.03029056 1079.97503525 159.35766512 1082.39331712 156.6875 1084.875 C150.40594491 1090.63456671 143.77050558 1095.83473857 137 1101 C136.27167969 1101.55816406 135.54335937 1102.11632813 134.79296875 1102.69140625 C116.54109316 1116.64872288 97.90633819 1130.07432554 78.10449219 1141.75732422 C76.02435461 1142.98561892 73.95300272 1144.22768464 71.8828125 1145.47265625 C31.68453102 1169.53154942 -10.55116075 1189.20082665 -55 1204 C-56.13324707 1204.37817871 -57.26649414 1204.75635742 -58.43408203 1205.14599609 C-139.67676619 1231.9530006 -226.4269368 1241.81636603 -540 1173 C-541.75787842 1172.15284424 -541.75787842 1172.15284424 -543.55126953 1171.28857422 C-560.15886697 1163.2579044 -576.24261679 1154.59043115 -592 1145 C-593.00546875 1144.3901123 -594.0109375 1143.78022461 -595.046875 1143.15185547 C-631.73966229 1120.80673961 -666.02491133 1094.62303676 -697.50244141 1065.38427734 C-699.01845739 1063.9829388 -700.54482708 1062.59375039 -702.07421875 1061.20703125 C-708.31732591 1055.52919536 -714.39619552 1049.70593701 -720.375 1043.75 C-721.02887695 1043.10071533 -721.68275391 1042.45143066 -722.35644531 1041.7824707 C-726.17819397 1037.94855398 -729.80591502 1033.99904132 -733.34326172 1029.90185547 C-735.78513721 1027.09870043 -738.33223319 1024.39875826 -740.875 1021.6875 C-745.28226211 1016.94500684 -749.49064391 1012.09950345 -753.54296875 1007.046875 C-755.39945546 1004.74471342 -757.27495624 1002.46817659 -759.17578125 1000.203125 C-819.90428846 927.70019734 -862.47670004 839.86005195 -901 662 C-901.14953125 660.73236816 -901.2990625 659.46473633 -901.453125 658.15869141 C-906.66005635 613.10863559 -906.65262345 565.00188418 -901 520 C-900.85081116 518.78482697 -900.85081116 518.78482697 -900.6986084 517.54510498 C-890.09893364 431.45082958 -864.04481023 348.97708385 -775 203 C-774.60071289 202.4745459 -774.20142578 201.9490918 -773.79003906 201.40771484 C-761.80334574 185.63599619 -749.14880856 170.4186458 -735.67578125 155.89453125 C-733.97142159 154.05083708 -732.27980811 152.19521787 -730.60546875 150.32421875 C-724.38502169 143.39846116 -717.88484667 136.77863781 -711.3125 130.1875 C-710.42127441 129.29168213 -709.53004883 128.39586426 -708.61181641 127.47290039 C-704.12728471 122.99880172 -699.58734016 118.66167523 -694.78051758 114.53540039 C-692.18588139 112.29795805 -689.69452242 109.96021249 -687.1875 107.625 C-682.59440625 103.38689299 -677.88729778 99.34399807 -673.015625 95.42578125 C-670.80357784 93.64640135 -668.60793161 91.85369447 -666.421875 90.04296875 C-640.15349571 68.34445354 -611.59852435 48.88020065 -582 32 C-581.28521484 31.58959473 -580.57042969 31.17918945 -579.83398438 30.75634766 C-574.59693763 27.7605393 -569.31207615 24.8603487 -564 22 C-563.09217773 21.50918945 -562.18435547 21.01837891 -561.24902344 20.51269531 C-491.43569792 -17.05029076 -414.41060317 -40.29554586 0 0 Z " fill="#FF0000" transform="translate(2106,1256)"/>
</svg>
